<svg width="32" height="32" viewBox="0 0 32 32" fill="none" xmlns="http://www.w3.org/2000/svg">
<path d="M0 2.5C0 1.11929 1.11929 0 2.5 0H12.5C13.8807 0 15 1.11929 15 2.5V17.5C15 18.8807 13.8807 20 12.5 20H2.5C1.11929 20 0 18.8807 0 17.5V2.5Z" fill="#1C7DCE"/>
<path d="M17 2.5C17 1.11929 18.1193 0 19.5 0H29.5C30.8807 0 32 1.11929 32 2.5V7.5C32 8.88071 30.8807 10 29.5 10H19.5C18.1193 10 17 8.88071 17 7.5V2.5Z" fill="#1364A7"/>
<path d="M0 24.5C0 23.1193 1.11929 22 2.5 22H12.5C13.8807 22 15 23.1193 15 24.5V29.5C15 30.8807 13.8807 32 12.5 32H2.5C1.11929 32 0 30.8807 0 29.5V24.5Z" fill="#55A3E4"/>
<path d="M17 14.5C17 13.1193 18.1193 12 19.5 12H29.5C30.8807 12 32 13.1193 32 14.5V29.5C32 30.8807 30.8807 32 29.5 32H19.5C18.1193 32 17 30.8807 17 29.5V14.5Z" fill="#1C7DCE"/>
</svg>